<svg xmlns="http://www.w3.org/2000/svg" version="1.1" xmlns:xlink="http://www.w3.org/1999/xlink" xmlns:svgjs="http://svgjs.dev/svgjs" width="1000" height="472" viewBox="0 0 1000 472"><g transform="matrix(1,0,0,1,-0.6060606060606801,-0.3160934573664065)"><svg viewBox="0 0 396 187" data-background-color="#ffffff" preserveAspectRatio="xMidYMid meet" height="472" width="1000" xmlns="http://www.w3.org/2000/svg" xmlns:xlink="http://www.w3.org/1999/xlink"><g id="tight-bounds" transform="matrix(1,0,0,1,0.24000000000003752,0.12523194179559027)"><svg viewBox="0 0 395.5199999999999 186.74953611640876" height="186.74953611640876" width="395.5199999999999"><g><svg viewBox="0 0 397.4975999999999 187.6832837969908" height="186.74953611640876" width="395.5199999999999"><g><rect width="397.4975999999999" height="5.368816082449165" x="0" y="96.33015123873295" fill="#89939e" opacity="1" stroke-width="0" stroke="transparent" fill-opacity="1" class="rect-uu-0" data-fill-palette-color="primary" rx="1%" id="uu-0" data-palette-color="#89939e"></rect></g><g><rect width="397.4975999999999" height="5.368816082449165" x="0" y="108.72621350239831" fill="#89939e" opacity="1" stroke-width="0" stroke="transparent" fill-opacity="1" class="rect-uu-1" data-fill-palette-color="primary" rx="1%" id="uu-1" data-palette-color="#89939e"></rect></g><g transform="matrix(1,0,0,1,0.9887999999999693,128.14952194727985)"><svg viewBox="0 0 395.52 59.53376184971098" height="59.53376184971098" width="395.52"><g><svg viewBox="0 0 395.52 59.53376184971098" height="59.53376184971098" width="395.52"><g><svg viewBox="0 0 395.52 59.53376184971098" height="59.53376184971098" width="395.52"><g transform="matrix(1,0,0,1,0,0)"><svg width="395.52" viewBox="0.3 -31.95 216.23 32.55" height="59.53376184971098" data-palette-color="#89939e"><path d="M11.43-28.05L0.3-28.05 0.3-31.4 24.75-31.4 24.75-28.05 13.58-28.05 14.45-28.95 14.45 0 10.55 0 10.55-28.95 11.43-28.05ZM41.17 0.6L41.17 0.6Q37.27 0.6 34.2-1.2 31.12-3 29.35-6.61 27.57-10.23 27.57-15.65L27.57-15.65Q27.57-21.15 29.35-24.76 31.12-28.38 34.2-30.16 37.27-31.95 41.17-31.95L41.17-31.95Q45.07-31.95 48.15-30.15 51.22-28.35 53-24.73 54.77-21.1 54.77-15.65L54.77-15.65Q54.77-10.18 53-6.56 51.22-2.95 48.15-1.18 45.07 0.6 41.17 0.6ZM41.17-3L41.17-3Q45.6-3 48.16-6.23 50.72-9.45 50.72-15.7L50.72-15.7Q50.72-21.83 48.16-25.14 45.6-28.45 41.17-28.45L41.17-28.45Q36.8-28.45 34.21-25.13 31.62-21.8 31.62-15.65L31.62-15.65Q31.62-9.43 34.21-6.21 36.8-3 41.17-3ZM62.34 0L62.34-31.4 71.55-31.4Q76.3-31.4 79.8-29.46 83.3-27.53 85.22-24 87.15-20.48 87.15-15.7L87.15-15.7Q87.15-10.98 85.22-7.45 83.3-3.93 79.8-1.96 76.3 0 71.55 0L71.55 0 62.34 0ZM71.55-27.95L66.25-27.95 66.25-3.4 71.55-3.4Q75.09-3.4 77.66-5 80.22-6.6 81.61-9.39 83-12.18 83-15.7L83-15.7Q83-19.25 81.61-22.01 80.22-24.78 77.66-26.36 75.09-27.95 71.55-27.95L71.55-27.95ZM106.44 0.6L106.44 0.6Q102.54 0.6 99.47-1.2 96.39-3 94.62-6.61 92.84-10.23 92.84-15.65L92.84-15.65Q92.84-21.15 94.62-24.76 96.39-28.38 99.47-30.16 102.54-31.95 106.44-31.95L106.44-31.95Q110.34-31.95 113.42-30.15 116.49-28.35 118.27-24.73 120.04-21.1 120.04-15.65L120.04-15.65Q120.04-10.18 118.27-6.56 116.49-2.95 113.42-1.18 110.34 0.6 106.44 0.6ZM106.44-3L106.44-3Q110.87-3 113.43-6.23 115.99-9.45 115.99-15.7L115.99-15.7Q115.99-21.83 113.43-25.14 110.87-28.45 106.44-28.45L106.44-28.45Q102.07-28.45 99.48-25.13 96.89-21.8 96.89-15.65L96.89-15.65Q96.89-9.43 99.48-6.21 102.07-3 106.44-3ZM139.84 0L135.74 0 146.54-31.4 151.29-31.4 161.84 0 157.74 0 155.09-8.05 142.59-8.05 139.84 0ZM148.84-26.65L143.59-11.1 154.09-11.1 148.84-26.65ZM172.06 0L168.11 0 168.11-31.4 178.21-31.4Q183.38-31.4 186.12-28.79 188.86-26.18 188.86-21.7L188.86-21.7Q188.86-17.28 186.12-14.69 183.38-12.1 178.21-12.1L178.21-12.1 172.06-12.1 172.06 0ZM172.06-28.05L172.06-15.5 178.21-15.5Q181.48-15.5 183.17-17.18 184.86-18.85 184.86-21.7L184.86-21.7Q184.86-24.6 183.17-26.33 181.48-28.05 178.21-28.05L178.21-28.05 172.06-28.05ZM199.73 0L195.78 0 195.78-31.4 205.88-31.4Q211.06-31.4 213.8-28.79 216.53-26.18 216.53-21.7L216.53-21.7Q216.53-17.28 213.8-14.69 211.06-12.1 205.88-12.1L205.88-12.1 199.73-12.1 199.73 0ZM199.73-28.05L199.73-15.5 205.88-15.5Q209.16-15.5 210.85-17.18 212.53-18.85 212.53-21.7L212.53-21.7Q212.53-24.6 210.85-26.33 209.16-28.05 205.88-28.05L205.88-28.05 199.73-28.05Z" opacity="1" transform="matrix(1,0,0,1,0,0)" fill="#89939e" class="undefined-text-0" data-fill-palette-color="primary" id="text-0"></path></svg></g></svg></g></svg></g></svg></g><g transform="matrix(1,0,0,1,166.9170623081201,0)"><svg viewBox="0 0 63.66347538375968 82.27565887630058" height="82.27565887630058" width="63.66347538375968"><g><svg xmlns="http://www.w3.org/2000/svg" xmlns:xlink="http://www.w3.org/1999/xlink" version="1.1" x="0" y="0" viewBox="12.983 1 75.68599999999999 97.813" enable-background="new 0 0 100 100" xml:space="preserve" height="82.27565887630058" width="63.66347538375968" class="icon-icon-0" data-fill-palette-color="accent" id="icon-0"><g fill="#89939e" data-fill-palette-color="accent"><polygon fill-rule="evenodd" clip-rule="evenodd" points="12.983,10.59 30.001,98.813 24.129,39.764 53.15,37.872 53.096,27.989    64.549,1 53.622,18.977  " fill="#89939e" data-fill-palette-color="accent"></polygon><polygon fill-rule="evenodd" clip-rule="evenodd" points="59.389,54.548 64.549,1.007 55.809,40.723 36.197,41.768 37.767,62.23    30.001,98.813 42.058,58.914  " fill="#89939e" data-fill-palette-color="accent"></polygon><polygon fill-rule="evenodd" clip-rule="evenodd" points="62.8,67.182 63.349,56.729 47.37,60.484 47.338,72.281 30.001,98.813    51.681,71.197  " fill="#89939e" data-fill-palette-color="accent"></polygon><polygon fill-rule="evenodd" clip-rule="evenodd" points="65.711,62.394 80.552,57.663 82.061,45.131 66.162,47.226  " fill="#89939e" data-fill-palette-color="accent"></polygon><polygon fill-rule="evenodd" clip-rule="evenodd" points="72.07,44.502 83.058,43.085 84.639,32.807 76.56,32.434 64.549,1    72.979,31.967  " fill="#89939e" data-fill-palette-color="accent"></polygon><polygon fill-rule="evenodd" clip-rule="evenodd" points="87.413,31.294 88.669,21.788 79.125,19.094 64.549,1 79.032,23.437    78.61,30.437  " fill="#89939e" data-fill-palette-color="accent"></polygon></g></svg></g></svg></g><g></g></svg></g><defs></defs></svg><rect width="395.5199999999999" height="186.74953611640876" fill="none" stroke="none" visibility="hidden"></rect></g></svg></g></svg>